<svg xmlns="http://www.w3.org/2000/svg" viewBox="20 120 590 320" width="590" height="320">
  <g fill="#ffffff" fill-rule="evenodd">
    <path d="M 210.0 300.0 L 207.0 296.0 L 203.0 294.0 L 199.0 294.0 L 193.0 297.0 L 183.0 307.0 L 177.0 316.0 L 167.0 335.0 L 167.0 337.0 L 164.0 343.0 L 162.0 345.0 L 160.0 344.0 L 159.0 341.0 L 158.0 331.0 L 156.0 327.0 L 155.0 321.0 L 150.0 313.0 L 145.0 310.0 L 140.0 310.0 L 129.0 319.0 L 122.0 329.0 L 114.0 345.0 L 111.0 354.0 L 107.0 360.0 L 105.0 358.0 L 104.0 335.0 L 103.0 334.0 L 101.0 319.0 L 98.0 313.0 L 94.0 309.0 L 88.0 308.0 L 84.0 310.0 L 71.0 324.0 L 57.0 347.0 L 39.0 386.0 L 33.0 404.0 L 33.0 410.0 L 35.0 411.0 L 34.0 407.0 L 36.0 403.0 L 36.0 400.0 L 38.0 397.0 L 44.0 380.0 L 46.0 378.0 L 47.0 374.0 L 61.0 347.0 L 74.0 327.0 L 78.0 322.0 L 87.0 314.0 L 90.0 314.0 L 95.0 320.0 L 95.0 324.0 L 97.0 330.0 L 97.0 343.0 L 98.0 344.0 L 97.0 347.0 L 97.0 351.0 L 98.0 352.0 L 97.0 385.0 L 96.0 386.0 L 96.0 394.0 L 95.0 395.0 L 95.0 404.0 L 94.0 405.0 L 92.0 418.0 L 91.0 419.0 L 91.0 429.0 L 93.0 431.0 L 96.0 431.0 L 99.0 427.0 L 100.0 420.0 L 101.0 419.0 L 101.0 413.0 L 102.0 412.0 L 102.0 406.0 L 103.0 405.0 L 104.0 396.0 L 106.0 392.0 L 108.0 381.0 L 120.0 347.0 L 132.0 325.0 L 137.0 319.0 L 141.0 317.0 L 143.0 317.0 L 148.0 322.0 L 151.0 332.0 L 151.0 337.0 L 152.0 338.0 L 153.0 366.0 L 152.0 367.0 L 152.0 376.0 L 151.0 377.0 L 151.0 384.0 L 149.0 389.0 L 149.0 394.0 L 150.0 396.0 L 154.0 397.0 L 158.0 391.0 L 160.0 375.0 L 166.0 358.0 L 166.0 355.0 L 168.0 352.0 L 168.0 349.0 L 170.0 346.0 L 174.0 334.0 L 181.0 320.0 L 187.0 311.0 L 199.0 300.0 L 201.0 300.0 L 205.0 304.0 L 206.0 306.0 L 206.0 313.0 L 207.0 314.0 L 205.0 342.0 L 204.0 343.0 L 203.0 357.0 L 201.0 364.0 L 201.0 373.0 L 200.0 374.0 L 200.0 392.0 L 201.0 395.0 L 203.0 397.0 L 205.0 397.0 L 206.0 396.0 L 206.0 382.0 L 207.0 381.0 L 208.0 364.0 L 209.0 363.0 L 209.0 357.0 L 210.0 356.0 L 210.0 347.0 L 211.0 346.0 L 211.0 340.0 L 212.0 339.0 L 212.0 321.0 L 213.0 320.0 L 212.0 305.0 L 210.0 302.0 Z"/>
    <path d="M 544.0 134.0 L 537.0 132.0 L 536.0 133.0 L 531.0 133.0 L 527.0 135.0 L 524.0 135.0 L 521.0 137.0 L 513.0 139.0 L 492.0 149.0 L 490.0 149.0 L 479.0 155.0 L 477.0 155.0 L 427.0 180.0 L 425.0 180.0 L 423.0 178.0 L 424.0 177.0 L 424.0 174.0 L 432.0 155.0 L 432.0 152.0 L 434.0 149.0 L 434.0 146.0 L 436.0 142.0 L 437.0 134.0 L 438.0 133.0 L 437.0 128.0 L 433.0 128.0 L 427.0 137.0 L 427.0 139.0 L 421.0 152.0 L 421.0 155.0 L 417.0 164.0 L 411.0 187.0 L 409.0 189.0 L 293.0 247.0 L 286.0 248.0 L 286.0 249.0 L 290.0 249.0 L 305.0 242.0 L 307.0 242.0 L 309.0 240.0 L 311.0 240.0 L 326.0 232.0 L 328.0 232.0 L 338.0 226.0 L 340.0 226.0 L 359.0 216.0 L 361.0 216.0 L 363.0 214.0 L 367.0 213.0 L 369.0 211.0 L 371.0 211.0 L 403.0 195.0 L 406.0 195.0 L 408.0 197.0 L 407.0 204.0 L 405.0 209.0 L 405.0 213.0 L 403.0 217.0 L 403.0 221.0 L 398.0 232.0 L 398.0 234.0 L 393.0 243.0 L 393.0 245.0 L 391.0 247.0 L 391.0 249.0 L 368.0 294.0 L 353.0 319.0 L 350.0 322.0 L 349.0 325.0 L 339.0 339.0 L 320.0 359.0 L 311.0 363.0 L 306.0 362.0 L 302.0 358.0 L 300.0 354.0 L 300.0 349.0 L 310.0 337.0 L 322.0 318.0 L 327.0 308.0 L 327.0 306.0 L 333.0 292.0 L 334.0 284.0 L 335.0 283.0 L 335.0 272.0 L 333.0 268.0 L 327.0 266.0 L 322.0 268.0 L 315.0 274.0 L 304.0 290.0 L 303.0 294.0 L 299.0 301.0 L 299.0 304.0 L 297.0 307.0 L 297.0 310.0 L 294.0 319.0 L 294.0 323.0 L 293.0 324.0 L 293.0 339.0 L 292.0 340.0 L 293.0 342.0 L 293.0 348.0 L 291.0 352.0 L 279.0 363.0 L 266.0 372.0 L 259.0 375.0 L 250.0 376.0 L 247.0 375.0 L 241.0 369.0 L 239.0 362.0 L 239.0 357.0 L 250.0 345.0 L 262.0 326.0 L 262.0 324.0 L 268.0 312.0 L 268.0 309.0 L 270.0 305.0 L 271.0 295.0 L 269.0 290.0 L 265.0 289.0 L 262.0 290.0 L 253.0 299.0 L 241.0 321.0 L 235.0 340.0 L 234.0 352.0 L 233.0 353.0 L 233.0 362.0 L 237.0 374.0 L 241.0 379.0 L 247.0 382.0 L 257.0 382.0 L 271.0 376.0 L 283.0 367.0 L 292.0 358.0 L 294.0 358.0 L 302.0 367.0 L 306.0 369.0 L 312.0 369.0 L 321.0 365.0 L 335.0 352.0 L 356.0 322.0 L 369.0 298.0 L 371.0 296.0 L 386.0 266.0 L 386.0 264.0 L 393.0 250.0 L 395.0 248.0 L 397.0 251.0 L 396.0 252.0 L 396.0 258.0 L 395.0 259.0 L 395.0 265.0 L 394.0 266.0 L 394.0 272.0 L 393.0 273.0 L 392.0 290.0 L 391.0 291.0 L 391.0 330.0 L 392.0 331.0 L 393.0 339.0 L 396.0 346.0 L 402.0 352.0 L 411.0 353.0 L 418.0 350.0 L 429.0 342.0 L 443.0 328.0 L 457.0 311.0 L 488.0 267.0 L 490.0 269.0 L 489.0 295.0 L 490.0 296.0 L 490.0 305.0 L 491.0 306.0 L 491.0 313.0 L 493.0 319.0 L 493.0 325.0 L 481.0 338.0 L 477.0 345.0 L 477.0 349.0 L 479.0 352.0 L 483.0 354.0 L 495.0 354.0 L 499.0 352.0 L 503.0 348.0 L 504.0 345.0 L 502.0 332.0 L 501.0 331.0 L 501.0 326.0 L 522.0 307.0 L 557.0 279.0 L 564.0 275.0 L 571.0 269.0 L 593.0 254.0 L 597.0 254.0 L 604.0 250.0 L 606.0 247.0 L 606.0 244.0 L 605.0 243.0 L 600.0 243.0 L 589.0 249.0 L 571.0 261.0 L 567.0 265.0 L 560.0 269.0 L 556.0 273.0 L 539.0 285.0 L 528.0 295.0 L 523.0 298.0 L 501.0 318.0 L 499.0 318.0 L 497.0 316.0 L 496.0 306.0 L 495.0 305.0 L 495.0 299.0 L 494.0 298.0 L 494.0 274.0 L 495.0 273.0 L 497.0 254.0 L 508.0 232.0 L 511.0 223.0 L 510.0 218.0 L 508.0 217.0 L 504.0 221.0 L 497.0 239.0 L 496.0 245.0 L 490.0 256.0 L 455.0 304.0 L 439.0 323.0 L 426.0 336.0 L 418.0 342.0 L 412.0 345.0 L 406.0 345.0 L 400.0 339.0 L 400.0 336.0 L 398.0 331.0 L 398.0 324.0 L 397.0 323.0 L 397.0 295.0 L 398.0 294.0 L 398.0 281.0 L 399.0 280.0 L 399.0 272.0 L 400.0 271.0 L 400.0 262.0 L 401.0 261.0 L 402.0 249.0 L 404.0 243.0 L 404.0 237.0 L 406.0 231.0 L 408.0 216.0 L 418.0 192.0 L 418.0 190.0 L 422.0 186.0 L 498.0 150.0 L 500.0 150.0 L 524.0 140.0 L 527.0 140.0 L 531.0 138.0 L 536.0 138.0 L 538.0 141.0 L 534.0 147.0 L 513.0 166.0 L 510.0 170.0 L 509.0 173.0 L 512.0 174.0 L 525.0 165.0 L 540.0 150.0 L 543.0 146.0 L 546.0 139.0 Z"/>
    <path d="M 265.0 294.0 L 268.0 297.0 L 268.0 300.0 L 267.0 301.0 L 267.0 306.0 L 262.0 320.0 L 253.0 337.0 L 242.0 351.0 L 240.0 349.0 L 240.0 340.0 L 247.0 318.0 L 258.0 299.0 L 263.0 294.0 Z"/>
    <path d="M 328.0 270.0 L 331.0 273.0 L 331.0 284.0 L 326.0 300.0 L 312.0 326.0 L 307.0 333.0 L 300.0 339.0 L 298.0 337.0 L 298.0 328.0 L 299.0 327.0 L 300.0 315.0 L 304.0 301.0 L 313.0 283.0 L 323.0 272.0 Z"/>
    <path d="M 434.0 135.0 L 435.0 136.0 L 435.0 141.0 L 433.0 145.0 L 433.0 148.0 L 431.0 151.0 L 431.0 154.0 L 427.0 162.0 L 423.0 175.0 L 419.0 178.0 L 418.0 175.0 L 427.0 145.0 L 430.0 138.0 Z"/>
    <path d="M 494.0 333.0 L 498.0 338.0 L 498.0 344.0 L 494.0 348.0 L 486.0 348.0 L 484.0 346.0 L 484.0 344.0 Z"/>
  </g>
</svg>
